<?xml version="1.0" encoding="utf-8"?>
<svg version="1.1" xmlns:xlink="http://www.w3.org/1999/xlink" width="15px" height="14px" xmlns="http://www.w3.org/2000/svg">
  <g transform="matrix(1 0 0 1 -369 -803 )">
    <path d="M 3.46153846153846 10.5  L 3.46153846153846 12.8333333333333  L 11.5384615384615 12.8333333333333  L 11.5384615384615 10.5  L 3.46153846153846 10.5  Z M 3.46153846153846 1.16666666666667  L 3.46153846153846 7  L 11.5384615384615 7  L 11.5384615384615 3.5  L 10.0961538461538 3.5  C 9.85576923076923 3.5  9.65144230769231 3.41493055555555  9.48317307692308 3.24479166666667  C 9.31490384615385 3.07465277777778  9.23076923076923 2.86805555555555  9.23076923076923 2.625  L 9.23076923076923 1.16666666666667  L 3.46153846153846 1.16666666666667  Z M 13.6748798076923 7.99348958333333  C 13.7890625 7.87803819444444  13.8461538461538 7.74131944444444  13.8461538461538 7.58333333333333  C 13.8461538461538 7.42534722222222  13.7890625 7.28862847222222  13.6748798076923 7.17317708333333  C 13.5606971153846 7.05772569444444  13.4254807692308 7  13.2692307692308 7  C 13.1129807692308 7  12.9777644230769 7.05772569444444  12.8635817307692 7.17317708333333  C 12.7493990384615 7.28862847222222  12.6923076923077 7.42534722222222  12.6923076923077 7.58333333333333  C 12.6923076923077 7.74131944444444  12.7493990384615 7.87803819444444  12.8635817307692 7.99348958333333  C 12.9777644230769 8.10894097222222  13.1129807692308 8.16666666666667  13.2692307692308 8.16666666666667  C 13.4254807692308 8.16666666666667  13.5606971153846 8.10894097222222  13.6748798076923 7.99348958333333  Z M 14.4906850961538 6.34830729166667  C 14.8302283653846 6.69162326388889  15 7.10329861111111  15 7.58333333333333  L 15 11.375  C 15 11.4539930555556  14.9714543269231 11.5223524305556  14.9143629807692 11.580078125  C 14.8572716346154 11.6378038194444  14.7896634615385 11.6666666666667  14.7115384615385 11.6666666666667  L 12.6923076923077 11.6666666666667  L 12.6923076923077 13.125  C 12.6923076923077 13.3680555555556  12.6081730769231 13.5746527777778  12.4399038461538 13.7447916666667  C 12.2716346153846 13.9149305555556  12.0673076923077 14  11.8269230769231 14  L 3.17307692307692 14  C 2.93269230769231 14  2.72836538461539 13.9149305555556  2.56009615384615 13.7447916666667  C 2.39182692307692 13.5746527777778  2.30769230769231 13.3680555555556  2.30769230769231 13.125  L 2.30769230769231 11.6666666666667  L 0.288461538461538 11.6666666666667  C 0.210336538461538 11.6666666666667  0.142728365384615 11.6378038194444  0.0856370192307692 11.580078125  C 0.0285456730769231 11.5223524305556  0 11.4539930555556  0 11.375  L 0 7.58333333333333  C 0 7.10329861111111  0.169771634615385 6.69162326388889  0.509314903846154 6.34830729166667  C 0.848858173076923 6.00499131944445  1.25600961538462 5.83333333333333  1.73076923076923 5.83333333333333  L 2.30769230769231 5.83333333333333  L 2.30769230769231 0.875  C 2.30769230769231 0.631944444444444  2.39182692307692 0.42534722222222  2.56009615384615 0.255208333333333  C 2.72836538461539 0.0850694444444438  2.93269230769231 0  3.17307692307692 0  L 9.23076923076923 0  C 9.47115384615385 0  9.73557692307692 0.0607638888888875  10.0240384615385 0.182291666666667  C 10.3125 0.303819444444444  10.5408653846154 0.449652777777777  10.7091346153846 0.619791666666667  L 12.0793269230769 2.00520833333333  C 12.2475961538462 2.17534722222222  12.3918269230769 2.40625  12.5120192307692 2.69791666666667  C 12.6322115384615 2.98958333333333  12.6923076923077 3.25694444444444  12.6923076923077 3.5  L 12.6923076923077 5.83333333333333  L 13.2692307692308 5.83333333333333  C 13.7439903846154 5.83333333333333  14.1511418269231 6.00499131944445  14.4906850961538 6.34830729166667  Z " fill-rule="nonzero" fill="#1890ff" stroke="none" transform="matrix(1 0 0 1 369 803 )" />
  </g>
</svg>