<?xml version="1.0" encoding="utf-8"?>
<svg version="1.1" xmlns:xlink="http://www.w3.org/1999/xlink" width="261px" height="136px" xmlns="http://www.w3.org/2000/svg">
  <g transform="matrix(1 0 0 1 -1507 -79 )">
    <path d="M 1508 83  A 3 3 0 0 1 1511 80 L 1764 80  A 3 3 0 0 1 1767 83 L 1767 211  A 3 3 0 0 1 1764 214 L 1511 214  A 3 3 0 0 1 1508 211 L 1508 83  Z " fill-rule="nonzero" fill="#ff3399" stroke="none" fill-opacity="0.0980392156862745" />
    <path d="M 1507.5 83  A 3.5 3.5 0 0 1 1511 79.5 L 1764 79.5  A 3.5 3.5 0 0 1 1767.5 83 L 1767.5 211  A 3.5 3.5 0 0 1 1764 214.5 L 1511 214.5  A 3.5 3.5 0 0 1 1507.5 211 L 1507.5 83  Z " stroke-width="1" stroke-dasharray="9,4" stroke="#ff3399" fill="none" stroke-dashoffset="0.5" />
  </g>
</svg>