<?xml version="1.0" encoding="utf-8"?>
<svg version="1.1" xmlns:xlink="http://www.w3.org/1999/xlink" width="1066px" height="129px" xmlns="http://www.w3.org/2000/svg">
  <g transform="matrix(1 0 0 1 -315 -143 )">
    <path d="M 316 147  A 3 3 0 0 1 319 144 L 1377 144  A 3 3 0 0 1 1380 147 L 1380 268  A 3 3 0 0 1 1377 271 L 319 271  A 3 3 0 0 1 316 268 L 316 147  Z " fill-rule="nonzero" fill="#ff3399" stroke="none" fill-opacity="0.0980392156862745" />
    <path d="M 315.5 147  A 3.5 3.5 0 0 1 319 143.5 L 1377 143.5  A 3.5 3.5 0 0 1 1380.5 147 L 1380.5 268  A 3.5 3.5 0 0 1 1377 271.5 L 319 271.5  A 3.5 3.5 0 0 1 315.5 268 L 315.5 147  Z " stroke-width="1" stroke-dasharray="9,4" stroke="#ff3399" fill="none" stroke-dashoffset="0.5" />
  </g>
</svg>