<?xml version="1.0" encoding="utf-8"?>
<svg version="1.1" xmlns:xlink="http://www.w3.org/1999/xlink" width="14px" height="11px" xmlns="http://www.w3.org/2000/svg">
  <g transform="matrix(1 0 0 1 -24 -195 )">
    <path d="M 4.11764705882353 7.91852678571429  L 4.11764705882353 10.0178571428571  L 6.58823529411765 8.83928571428572  L 6.58823529411765 6.91183035714286  L 4.11764705882353 7.91852678571429  Z M 1.10661764705882 6.16908482142857  L 3.70588235294118 7.23102678571429  L 6.30514705882353 6.16908482142857  L 3.70588235294118 5.10714285714286  L 1.10661764705882 6.16908482142857  Z M 10.7058823529412 7.91852678571429  L 10.7058823529412 10.0178571428571  L 13.1764705882353 8.83928571428572  L 13.1764705882353 6.91183035714286  L 10.7058823529412 7.91852678571429  Z M 7.69485294117647 6.16908482142857  L 10.2941176470588 7.23102678571429  L 12.8933823529412 6.16908482142857  L 10.2941176470588 5.10714285714286  L 7.69485294117647 6.16908482142857  Z M 7.41176470588235 3.79352678571429  L 7.41176470588235 5.43247767857143  L 9.88235294117647 4.41964285714286  L 9.88235294117647 2.78683035714286  L 7.41176470588235 3.79352678571429  Z M 4.16268382352941 1.94587053571429  L 7 3.10602678571429  L 9.83731617647059 1.94587053571429  L 7 0.785714285714285  L 4.16268382352941 1.94587053571429  Z M 13.8648897058824 5.85602678571429  C 13.9549632352941 5.98697916666667  14 6.13020833333333  14 6.28571428571429  L 14 8.83928571428572  C 14 8.98660714285714  13.9592524509804 9.12369791666667  13.8777573529412 9.25055803571428  C 13.796262254902 9.37741815476191  13.6847426470588 9.47358630952381  13.5431985294118 9.5390625  L 10.6608455882353 10.9140625  C 10.5536151960784 10.9713541666667  10.4313725490196 11  10.2941176470588 11  C 10.156862745098 11  10.0346200980392 10.9713541666667  9.92738970588235 10.9140625  L 7.04503676470588 9.5390625  C 7.02787990196079 9.53087797619048  7.01286764705882 9.52269345238095  7 9.51450892857143  C 6.99142156862745 9.52269345238095  6.97640931372549 9.53087797619048  6.95496323529412 9.5390625  L 4.07261029411765 10.9140625  C 3.96537990196078 10.9713541666667  3.84313725490196 11  3.70588235294118 11  C 3.56862745098039 11  3.44638480392157 10.9713541666667  3.33915441176471 10.9140625  L 0.456801470588235 9.5390625  C 0.315257352941176 9.47358630952381  0.203737745098039 9.37741815476191  0.122242647058824 9.25055803571428  C 0.0407475490196078 9.12369791666667  0 8.98660714285714  0 8.83928571428572  L 0 6.28571428571429  C 0 6.13020833333333  0.046109068627451 5.98697916666667  0.138327205882353 5.85602678571429  C 0.230545343137255 5.72507440476191  0.35171568627451 5.62686011904762  0.501838235294118 5.56138392857143  L 3.29411764705882 4.41964285714286  L 3.29411764705882 1.96428571428571  C 3.29411764705882 1.80877976190476  3.34022671568628 1.6655505952381  3.43244485294118 1.53459821428571  C 3.52466299019608 1.40364583333333  3.64583333333333 1.30543154761905  3.79595588235294 1.23995535714286  L 6.67830882352941 0.061383928571428  C 6.77696078431373 0.020461309523811  6.88419117647059 0  7 0  C 7.11580882352941 0  7.22303921568628 0.020461309523811  7.32169117647059 0.061383928571428  L 10.2040441176471 1.23995535714286  C 10.3541666666667 1.30543154761905  10.4753370098039 1.40364583333333  10.5675551470588 1.53459821428571  C 10.6597732843137 1.6655505952381  10.7058823529412 1.80877976190476  10.7058823529412 1.96428571428571  L 10.7058823529412 4.41964285714286  L 13.4981617647059 5.56138392857143  C 13.6525735294118 5.62686011904762  13.7748161764706 5.72507440476191  13.8648897058824 5.85602678571429  Z " fill-rule="nonzero" fill="#000000" stroke="none" fill-opacity="0.647058823529412" transform="matrix(1 0 0 1 24 195 )" />
  </g>
</svg>