<?xml version="1.0" encoding="utf-8"?>
<svg version="1.1" xmlns:xlink="http://www.w3.org/1999/xlink" width="14px" height="12px" xmlns="http://www.w3.org/2000/svg">
  <g transform="matrix(1 0 0 1 -24 -140 )">
    <path d="M 0.875 5.14285714285714  L 13.125 5.14285714285714  C 13.3665364583333 5.14285714285714  13.57275390625 5.2265625  13.74365234375 5.39397321428572  C 13.91455078125 5.56138392857143  14 5.76339285714286  14 6  C 14 6.23660714285714  13.91455078125 6.43861607142857  13.74365234375 6.60602678571429  C 13.57275390625 6.7734375  13.3665364583333 6.85714285714286  13.125 6.85714285714286  L 13.0224609375 6.85714285714286  L 12.236328125 11.2901785714286  C 12.1998697916667 11.4955357142857  12.099609375 11.6651785714286  11.935546875 11.7991071428571  C 11.771484375 11.9330357142857  11.5846354166667 12  11.375 12  L 2.625 12  C 2.41536458333333 12  2.228515625 11.9330357142857  2.064453125 11.7991071428571  C 1.900390625 11.6651785714286  1.80013020833333 11.4955357142857  1.763671875 11.2901785714286  L 0.9775390625 6.85714285714286  L 0.875 6.85714285714286  C 0.633463541666667 6.85714285714286  0.42724609375 6.7734375  0.25634765625 6.60602678571429  C 0.08544921875 6.43861607142857  0 6.23660714285714  0 6  C 0 5.76339285714286  0.08544921875 5.56138392857143  0.25634765625 5.39397321428572  C 0.42724609375 5.2265625  0.633463541666667 5.14285714285714  0.875 5.14285714285714  Z M 3.28125 10.5  L 3.3154296875 10.5  C 3.43391927083333 10.4910714285714  3.53304036458333 10.4408482142857  3.61279296875 10.3493303571429  C 3.69254557291667 10.2578125  3.72786458333333 10.1540178571429  3.71875 10.0379464285714  L 3.5 7.25223214285714  C 3.49088541666667 7.13616071428571  3.43961588541667 7.0390625  3.34619140625 6.9609375  C 3.25276692708333 6.8828125  3.14680989583333 6.84821428571428  3.0283203125 6.85714285714286  C 2.90983072916667 6.86607142857143  2.81070963541667 6.91629464285714  2.73095703125 7.0078125  C 2.65120442708333 7.09933035714286  2.61588541666667 7.203125  2.625 7.31919642857143  L 2.84375 10.1049107142857  C 2.85286458333333 10.2165178571429  2.89957682291667 10.3102678571429  2.98388671875 10.3861607142857  C 3.06819661458333 10.4620535714286  3.16731770833333 10.5  3.28125 10.5  Z M 5.9951171875 10.3727678571429  C 6.08170572916667 10.2879464285714  6.125 10.1875  6.125 10.0714285714286  L 6.125 7.28571428571429  C 6.125 7.16964285714286  6.08170572916667 7.06919642857143  5.9951171875 6.984375  C 5.90852864583333 6.89955357142857  5.80598958333333 6.85714285714286  5.6875 6.85714285714286  C 5.56901041666667 6.85714285714286  5.46647135416667 6.89955357142857  5.3798828125 6.984375  C 5.29329427083333 7.06919642857143  5.25 7.16964285714286  5.25 7.28571428571429  L 5.25 10.0714285714286  C 5.25 10.1875  5.29329427083333 10.2879464285714  5.3798828125 10.3727678571429  C 5.46647135416667 10.4575892857143  5.56901041666667 10.5  5.6875 10.5  C 5.80598958333333 10.5  5.90852864583333 10.4575892857143  5.9951171875 10.3727678571429  Z M 8.6201171875 10.3727678571429  C 8.70670572916667 10.2879464285714  8.75 10.1875  8.75 10.0714285714286  L 8.75 7.28571428571429  C 8.75 7.16964285714286  8.70670572916667 7.06919642857143  8.6201171875 6.984375  C 8.53352864583333 6.89955357142857  8.43098958333333 6.85714285714286  8.3125 6.85714285714286  C 8.19401041666667 6.85714285714286  8.09147135416667 6.89955357142857  8.0048828125 6.984375  C 7.91829427083333 7.06919642857143  7.875 7.16964285714286  7.875 7.28571428571429  L 7.875 10.0714285714286  C 7.875 10.1875  7.91829427083333 10.2879464285714  8.0048828125 10.3727678571429  C 8.09147135416667 10.4575892857143  8.19401041666667 10.5  8.3125 10.5  C 8.43098958333333 10.5  8.53352864583333 10.4575892857143  8.6201171875 10.3727678571429  Z M 11.01611328125 10.3861607142857  C 11.1004231770833 10.3102678571429  11.1471354166667 10.2165178571429  11.15625 10.1049107142857  L 11.375 7.31919642857143  C 11.3841145833333 7.203125  11.3487955729167 7.09933035714286  11.26904296875 7.0078125  C 11.1892903645833 6.91629464285714  11.0901692708333 6.86607142857143  10.9716796875 6.85714285714286  C 10.8531901041667 6.84821428571428  10.7472330729167 6.8828125  10.65380859375 6.9609375  C 10.5603841145833 7.0390625  10.5091145833333 7.13616071428571  10.5 7.25223214285714  L 10.28125 10.0379464285714  C 10.2721354166667 10.1540178571429  10.3074544270833 10.2578125  10.38720703125 10.3493303571429  C 10.4669596354167 10.4408482142857  10.5660807291667 10.4910714285714  10.6845703125 10.5  L 10.71875 10.5  C 10.8326822916667 10.5  10.9318033854167 10.4620535714286  11.01611328125 10.3861607142857  Z M 3.56494140625 1.47321428571429  C 3.40771484375 1.59821428571428  3.30403645833333 1.75892857142857  3.25390625 1.95535714285714  L 2.6181640625 4.71428571428572  L 1.7158203125 4.71428571428572  L 2.40625 1.76116071428571  C 2.49283854166667 1.36830357142857  2.69563802083333 1.04799107142857  3.0146484375 0.800223214285715  C 3.33365885416667 0.552455357142857  3.6982421875 0.428571428571428  4.1083984375 0.428571428571428  L 5.25 0.428571428571428  C 5.25 0.3125  5.29329427083333 0.21205357142857  5.3798828125 0.127232142857143  C 5.46647135416667 0.0424107142857153  5.56901041666667 0  5.6875 0  L 8.3125 0  C 8.43098958333333 0  8.53352864583333 0.0424107142857153  8.6201171875 0.127232142857143  C 8.70670572916667 0.21205357142857  8.75 0.3125  8.75 0.428571428571428  L 9.8916015625 0.428571428571428  C 10.3017578125 0.428571428571428  10.6663411458333 0.552455357142857  10.9853515625 0.800223214285715  C 11.3043619791667 1.04799107142857  11.5071614583333 1.36830357142857  11.59375 1.76116071428571  L 12.2841796875 4.71428571428572  L 11.3818359375 4.71428571428572  L 10.74609375 1.95535714285714  C 10.6959635416667 1.75892857142857  10.59228515625 1.59821428571428  10.43505859375 1.47321428571429  C 10.27783203125 1.34821428571429  10.0966796875 1.28571428571429  9.8916015625 1.28571428571429  L 8.75 1.28571428571429  C 8.75 1.40178571428571  8.70670572916667 1.50223214285714  8.6201171875 1.58705357142857  C 8.53352864583333 1.671875  8.43098958333333 1.71428571428571  8.3125 1.71428571428571  L 5.6875 1.71428571428571  C 5.56901041666667 1.71428571428571  5.46647135416667 1.671875  5.3798828125 1.58705357142857  C 5.29329427083333 1.50223214285714  5.25 1.40178571428571  5.25 1.28571428571429  L 4.1083984375 1.28571428571429  C 3.9033203125 1.28571428571429  3.72216796875 1.34821428571429  3.56494140625 1.47321428571429  Z " fill-rule="nonzero" fill="#000000" stroke="none" fill-opacity="0.647058823529412" transform="matrix(1 0 0 1 24 140 )" />
  </g>
</svg>