<?xml version="1.0" encoding="utf-8"?>
<svg version="1.1" xmlns:xlink="http://www.w3.org/1999/xlink" width="14px" height="12px" xmlns="http://www.w3.org/2000/svg">
  <g transform="matrix(1 0 0 1 -24 -302 )">
    <path d="M 12.6875 10.6704545454545  C 12.8445512820513 10.5113636363636  12.9230769230769 10.3181818181818  12.9230769230769 10.0909090909091  L 12.9230769230769 4.09090909090909  C 12.9230769230769 3.86363636363636  12.8445512820513 3.67045454545454  12.6875 3.51136363636364  C 12.5304487179487 3.35227272727273  12.3397435897436 3.27272727272727  12.1153846153846 3.27272727272727  L 6.19230769230769 3.27272727272727  C 5.96794871794872 3.27272727272727  5.77724358974359 3.19318181818182  5.62019230769231 3.03409090909091  C 5.46314102564103 2.875  5.38461538461539 2.68181818181818  5.38461538461539 2.45454545454546  L 5.38461538461539 1.90909090909091  C 5.38461538461539 1.68181818181818  5.30608974358974 1.48863636363636  5.14903846153846 1.32954545454546  C 4.99198717948718 1.17045454545455  4.80128205128205 1.09090909090909  4.57692307692308 1.09090909090909  L 1.88461538461538 1.09090909090909  C 1.66025641025641 1.09090909090909  1.46955128205128 1.17045454545455  1.3125 1.32954545454546  C 1.15544871794872 1.48863636363636  1.07692307692308 1.68181818181818  1.07692307692308 1.90909090909091  L 1.07692307692308 10.0909090909091  C 1.07692307692308 10.3181818181818  1.15544871794872 10.5113636363636  1.3125 10.6704545454545  C 1.46955128205128 10.8295454545455  1.66025641025641 10.9090909090909  1.88461538461538 11  L 12.1153846153846 11  C 12.3397435897436 10.9090909090909  12.5304487179487 10.8295454545455  12.6875 10.6704545454545  Z M 13.4447115384615 2.74431818181818  C 13.8149038461538 3.11931818181818  14 3.56818181818182  14 4.09090909090909  L 14 10.0909090909091  C 14 10.6136363636364  13.8149038461538 11.0625  13.4447115384615 11.4375  C 13.0745192307692 11.8125  12.6314102564103 12  12.1153846153846 12  L 1.88461538461538 12  C 1.36858974358974 12  0.925480769230769 11.8125  0.555288461538461 11.4375  C 0.185096153846154 11.0625  0 10.6136363636364  0 10.0909090909091  L 0 1.90909090909091  C 0 1.38636363636363  0.185096153846154 0.9375  0.555288461538461 0.5625  C 0.925480769230769 0.1875  1.36858974358974 0  1.88461538461538 0  L 4.57692307692308 0  C 5.09294871794872 0  5.53605769230769 0.1875  5.90625 0.5625  C 6.27644230769231 0.9375  6.46153846153846 1.38636363636363  6.46153846153846 1.90909090909091  L 6.46153846153846 2.18181818181818  L 12.1153846153846 2.18181818181818  C 12.6314102564103 2.18181818181818  13.0745192307692 2.36931818181818  13.4447115384615 2.74431818181818  Z " fill-rule="nonzero" fill="#000000" stroke="none" fill-opacity="0.647058823529412" transform="matrix(1 0 0 1 24 302 )" />
  </g>
</svg>