<?xml version="1.0" encoding="utf-8"?>
<svg version="1.1" xmlns:xlink="http://www.w3.org/1999/xlink" width="9px" height="14px" xmlns="http://www.w3.org/2000/svg">
  <g transform="matrix(1 0 0 1 -26 -355 )">
    <path d="M 2.28515625 12.8697916666667  C 2.44921875 12.6996527777778  2.53125 12.4930555555556  2.53125 12.25  C 2.53125 12.0069444444444  2.44921875 11.8003472222222  2.28515625 11.6302083333333  C 2.12109375 11.4600694444444  1.921875 11.375  1.6875 11.375  C 1.453125 11.375  1.25390625 11.4600694444444  1.08984375 11.6302083333333  C 0.92578125 11.8003472222222  0.84375 12.0069444444444  0.84375 12.25  C 0.84375 12.4930555555556  0.92578125 12.6996527777778  1.08984375 12.8697916666667  C 1.25390625 13.0399305555556  1.453125 13.125  1.6875 13.125  C 1.921875 13.125  2.12109375 13.0399305555556  2.28515625 12.8697916666667  Z M 2.28515625 2.36979166666667  C 2.44921875 2.19965277777778  2.53125 1.99305555555555  2.53125 1.75  C 2.53125 1.50694444444444  2.44921875 1.30034722222222  2.28515625 1.13020833333333  C 2.12109375 0.960069444444444  1.921875 0.875  1.6875 0.875  C 1.453125 0.875  1.25390625 0.960069444444444  1.08984375 1.13020833333333  C 0.92578125 1.30034722222222  0.84375 1.50694444444444  0.84375 1.75  C 0.84375 1.99305555555555  0.92578125 2.19965277777778  1.08984375 2.36979166666667  C 1.25390625 2.53993055555555  1.453125 2.625  1.6875 2.625  C 1.921875 2.625  2.12109375 2.53993055555555  2.28515625 2.36979166666667  Z M 7.91015625 3.53645833333333  C 8.07421875 3.36631944444444  8.15625 3.15972222222222  8.15625 2.91666666666667  C 8.15625 2.67361111111111  8.07421875 2.46701388888889  7.91015625 2.296875  C 7.74609375 2.12673611111111  7.546875 2.04166666666667  7.3125 2.04166666666667  C 7.078125 2.04166666666667  6.87890625 2.12673611111111  6.71484375 2.296875  C 6.55078125 2.46701388888889  6.46875 2.67361111111111  6.46875 2.91666666666667  C 6.46875 3.15972222222222  6.55078125 3.36631944444444  6.71484375 3.53645833333333  C 6.87890625 3.70659722222222  7.078125 3.79166666666667  7.3125 3.79166666666667  C 7.546875 3.79166666666667  7.74609375 3.70659722222222  7.91015625 3.53645833333333  Z M 8.5078125 1.67708333333333  C 8.8359375 2.01736111111111  9 2.43055555555555  9 2.91666666666667  C 9 3.23263888888889  8.923828125 3.52582465277778  8.771484375 3.79622395833333  C 8.619140625 4.06662326388889  8.4140625 4.27777777777778  8.15625 4.4296875  C 8.14453125 6.17361111111111  7.482421875 7.43142361111111  6.169921875 8.203125  C 5.77734375 8.43402777777778  5.1826171875 8.68012152777778  4.3857421875 8.94140625  C 3.6357421875 9.18446180555555  3.13916015625 9.40017361111111  2.89599609375 9.58854166666667  C 2.65283203125 9.77690972222222  2.53125 10.0807291666667  2.53125 10.5  L 2.53125 10.7369791666667  C 2.7890625 10.8888888888889  2.994140625 11.1000434027778  3.146484375 11.3704427083333  C 3.298828125 11.6408420138889  3.375 11.9340277777778  3.375 12.25  C 3.375 12.7361111111111  3.2109375 13.1493055555556  2.8828125 13.4895833333333  C 2.5546875 13.8298611111111  2.15625 14  1.6875 14  C 1.21875 14  0.8203125 13.8298611111111  0.4921875 13.4895833333333  C 0.1640625 13.1493055555556  0 12.7361111111111  0 12.25  C 0 11.9340277777778  0.076171875 11.6408420138889  0.228515625 11.3704427083333  C 0.380859375 11.1000434027778  0.5859375 10.8888888888889  0.84375 10.7369791666667  L 0.84375 3.26302083333333  C 0.5859375 3.11111111111111  0.380859375 2.89995659722222  0.228515625 2.62955729166667  C 0.076171875 2.35915798611111  0 2.06597222222222  0 1.75  C 0 1.26388888888889  0.1640625 0.850694444444444  0.4921875 0.510416666666667  C 0.8203125 0.170138888888888  1.21875 0  1.6875 0  C 2.15625 0  2.5546875 0.170138888888888  2.8828125 0.510416666666667  C 3.2109375 0.850694444444444  3.375 1.26388888888889  3.375 1.75  C 3.375 2.06597222222222  3.298828125 2.35915798611111  3.146484375 2.62955729166667  C 2.994140625 2.89995659722222  2.7890625 3.11111111111111  2.53125 3.26302083333333  L 2.53125 7.79296875  C 2.84765625 7.63498263888889  3.298828125 7.46180555555556  3.884765625 7.2734375  C 4.20703125 7.17013888888889  4.46337890625 7.08051215277778  4.65380859375 7.00455729166667  C 4.84423828125 6.92860243055555  5.05078125 6.83441840277778  5.2734375 6.72200520833333  C 5.49609375 6.60959201388889  5.6689453125 6.48958333333333  5.7919921875 6.36197916666667  C 5.9150390625 6.234375  6.03369140625 6.07942708333333  6.14794921875 5.89713541666667  C 6.26220703125 5.71484375  6.34423828125 5.50368923611111  6.39404296875 5.263671875  C 6.44384765625 5.02365451388889  6.46875 4.74565972222222  6.46875 4.4296875  C 6.2109375 4.27777777777778  6.005859375 4.06662326388889  5.853515625 3.79622395833333  C 5.701171875 3.52582465277778  5.625 3.23263888888889  5.625 2.91666666666667  C 5.625 2.43055555555555  5.7890625 2.01736111111111  6.1171875 1.67708333333333  C 6.4453125 1.33680555555555  6.84375 1.16666666666667  7.3125 1.16666666666667  C 7.78125 1.16666666666667  8.1796875 1.33680555555555  8.5078125 1.67708333333333  Z " fill-rule="nonzero" fill="#000000" stroke="none" fill-opacity="0.647058823529412" transform="matrix(1 0 0 1 26 355 )" />
  </g>
</svg>