<?xml version="1.0" encoding="utf-8"?>
<svg version="1.1" xmlns:xlink="http://www.w3.org/1999/xlink" width="14px" height="14px" xmlns="http://www.w3.org/2000/svg">
  <g transform="matrix(1 0 0 1 -24 -409 )">
    <path d="M 8.64973958333333 8.64973958333333  C 9.10546875 8.19401041666667  9.33333333333333 7.64409722222222  9.33333333333333 7  C 9.33333333333333 6.35590277777778  9.10546875 5.80598958333333  8.64973958333333 5.35026041666667  C 8.19401041666667 4.89453125  7.64409722222222 4.66666666666667  7 4.66666666666667  C 6.35590277777778 4.66666666666667  5.80598958333333 4.89453125  5.35026041666667 5.35026041666667  C 4.89453125 5.80598958333333  4.66666666666667 6.35590277777778  4.66666666666667 7  C 4.66666666666667 7.64409722222222  4.89453125 8.19401041666667  5.35026041666667 8.64973958333333  C 5.80598958333333 9.10546875  6.35590277777778 9.33333333333333  7 9.33333333333333  C 7.64409722222222 9.33333333333333  8.19401041666667 9.10546875  8.64973958333333 8.64973958333333  Z M 13.9270833333333 5.79231770833333  C 13.9756944444444 5.85611979166667  14 5.92751736111111  14 6.00651041666667  L 14 8.02994791666667  C 14 8.10286458333333  13.9756944444444 8.17274305555556  13.9270833333333 8.23958333333333  C 13.8784722222222 8.30642361111111  13.8177083333333 8.34592013888889  13.7447916666667 8.35807291666667  L 12.05859375 8.61328125  C 11.9431423611111 8.94140625  11.8246527777778 9.21788194444444  11.703125 9.44270833333333  C 11.9157986111111 9.74652777777778  12.2408854166667 10.1657986111111  12.6783854166667 10.7005208333333  C 12.7391493055556 10.7734375  12.76953125 10.8493923611111  12.76953125 10.9283854166667  C 12.76953125 11.0073784722222  12.7421875 11.0772569444444  12.6875 11.1380208333333  C 12.5234375 11.3628472222222  12.22265625 11.6909722222222  11.78515625 12.1223958333333  C 11.34765625 12.5538194444444  11.0620659722222 12.76953125  10.9283854166667 12.76953125  C 10.85546875 12.76953125  10.7764756944444 12.7421875  10.69140625 12.6875  L 9.43359375 11.703125  C 9.16623263888889 11.8428819444444  8.88975694444444 11.9583333333333  8.60416666666667 12.0494791666667  C 8.50694444444444 12.8758680555556  8.41883680555556 13.4409722222222  8.33984375 13.7447916666667  C 8.29730902777778 13.9149305555556  8.18793402777778 14  8.01171875 14  L 5.98828125 14  C 5.90321180555556 14  5.82877604166667 13.9741753472222  5.76497395833333 13.9225260416667  C 5.701171875 13.8708767361111  5.66623263888889 13.8055555555556  5.66015625 13.7265625  L 5.40494791666667 12.0494791666667  C 5.10720486111111 11.9522569444444  4.83376736111111 11.83984375  4.58463541666667 11.7122395833333  L 3.29947916666667 12.6875  C 3.23871527777778 12.7421875  3.16276041666667 12.76953125  3.07161458333333 12.76953125  C 2.98654513888889 12.76953125  2.91059027777778 12.7361111111111  2.84375 12.6692708333333  C 2.078125 11.9765625  1.57682291666667 11.4661458333333  1.33984375 11.1380208333333  C 1.29730902777778 11.0772569444444  1.27604166666667 11.0073784722222  1.27604166666667 10.9283854166667  C 1.27604166666667 10.85546875  1.30034722222222 10.7855902777778  1.34895833333333 10.71875  C 1.44010416666667 10.5911458333333  1.59505208333333 10.3891059027778  1.81380208333333 10.1126302083333  C 2.03255208333333 9.83615451388889  2.19661458333333 9.62196180555555  2.30598958333333 9.47005208333333  C 2.14192708333333 9.16623263888889  2.01736111111111 8.86545138888889  1.93229166666667 8.56770833333333  L 0.264322916666667 8.32161458333333  C 0.185329861111111 8.30946180555556  0.121527777777778 8.271484375  0.0729166666666667 8.20768229166667  C 0.0243055555555556 8.14388020833333  0 8.07248263888889  0 7.99348958333333  L 0 5.97005208333333  C 0 5.89713541666667  0.0243055555555556 5.82725694444444  0.0729166666666667 5.76041666666667  C 0.121527777777778 5.69357638888889  0.179253472222222 5.65407986111111  0.24609375 5.64192708333333  L 1.94140625 5.38671875  C 2.02647569444444 5.10720486111111  2.14496527777778 4.82769097222222  2.296875 4.54817708333333  C 2.05381944444444 4.20182291666667  1.72873263888889 3.78255208333333  1.32161458333333 3.29036458333333  C 1.26085069444444 3.21744791666667  1.23046875 3.14453125  1.23046875 3.07161458333333  C 1.23046875 3.01085069444444  1.2578125 2.94097222222222  1.3125 2.86197916666667  C 1.47048611111111 2.64322916666667  1.76974826388889 2.31662326388889  2.21028645833333 1.88216145833333  C 2.65082465277778 1.44769965277778  2.93793402777778 1.23046875  3.07161458333333 1.23046875  C 3.15060763888889 1.23046875  3.22960069444445 1.26085069444444  3.30859375 1.32161458333333  L 4.56640625 2.296875  C 4.83376736111111 2.15711805555555  5.11024305555556 2.04166666666667  5.39583333333333 1.95052083333333  C 5.49305555555556 1.12413194444444  5.58116319444444 0.559027777777777  5.66015625 0.255208333333333  C 5.70269097222222 0.0850694444444438  5.81206597222222 0  5.98828125 0  L 8.01171875 0  C 8.09678819444444 0  8.17122395833333 0.0258246527777766  8.23502604166667 0.0774739583333328  C 8.298828125 0.129123263888888  8.33376736111111 0.194444444444444  8.33984375 0.2734375  L 8.59505208333333 1.95052083333333  C 8.89279513888889 2.04774305555555  9.16623263888889 2.16015625  9.41536458333333 2.28776041666667  L 10.7096354166667 1.3125  C 10.7643229166667 1.2578125  10.8372395833333 1.23046875  10.9283854166667 1.23046875  C 11.0073784722222 1.23046875  11.0833333333333 1.26085069444444  11.15625 1.32161458333333  C 11.9401041666667 2.04470486111111  12.44140625 2.56119791666667  12.66015625 2.87109375  C 12.7026909722222 2.91970486111111  12.7239583333333 2.98654513888889  12.7239583333333 3.07161458333333  C 12.7239583333333 3.14453125  12.6996527777778 3.21440972222222  12.6510416666667 3.28125  C 12.5598958333333 3.40885416666667  12.4049479166667 3.61089409722222  12.1861979166667 3.88736979166667  C 11.9674479166667 4.16384548611111  11.8033854166667 4.37803819444444  11.6940104166667 4.52994791666667  C 11.8519965277778 4.83376736111111  11.9765625 5.13151041666667  12.0677083333333 5.42317708333333  L 13.7356770833333 5.67838541666667  C 13.8146701388889 5.69053819444444  13.8784722222222 5.728515625  13.9270833333333 5.79231770833333  Z " fill-rule="nonzero" fill="#000000" stroke="none" fill-opacity="0.647058823529412" transform="matrix(1 0 0 1 24 409 )" />
  </g>
</svg>