<?xml version="1.0" encoding="utf-8"?>
<svg version="1.1" xmlns:xlink="http://www.w3.org/1999/xlink" width="14px" height="12px" xmlns="http://www.w3.org/2000/svg">
  <g transform="matrix(1 0 0 1 -24 -464 )">
    <path d="M 13.4362980769231 3.98011363636364  C 13.8120993589744 4.77556818181818  14 5.60227272727273  14 6.46022727272727  C 14 7.40340909090909  13.8317307692308 8.29545454545454  13.4951923076923 9.13636363636364  L 13.3269230769231 9.55397727272727  L 11.7704326923077 9.83522727272727  C 11.6470352564103 10.3068181818182  11.3932291666667 10.6946022727273  11.0090144230769 10.9985795454545  C 10.6247996794872 11.3025568181818  10.1858974358974 11.4545454545455  9.69230769230769 11.4545454545455  L 9.69230769230769 11.7272727272727  C 9.69230769230769 11.8068181818182  9.66706730769231 11.8721590909091  9.61658653846154 11.9232954545455  C 9.56610576923077 11.9744318181818  9.50160256410257 12  9.42307692307692 12  L 8.88461538461538 12  C 8.80608974358974 12  8.74158653846154 11.9744318181818  8.69110576923077 11.9232954545455  C 8.640625 11.8721590909091  8.61538461538462 11.8068181818182  8.61538461538462 11.7272727272727  L 8.61538461538462 6.81818181818182  C 8.61538461538462 6.73863636363636  8.640625 6.67329545454546  8.69110576923077 6.62215909090909  C 8.74158653846154 6.57102272727273  8.80608974358974 6.54545454545454  8.88461538461538 6.54545454545454  L 9.42307692307692 6.54545454545454  C 9.50160256410257 6.54545454545454  9.56610576923077 6.57102272727273  9.61658653846154 6.62215909090909  C 9.66706730769231 6.67329545454546  9.69230769230769 6.73863636363636  9.69230769230769 6.81818181818182  L 9.69230769230769 7.09090909090909  C 10.0905448717949 7.09090909090909  10.4551282051282 7.19176136363636  10.7860576923077 7.39346590909091  C 11.1169871794872 7.59517045454545  11.3778044871795 7.86647727272727  11.5685096153846 8.20738636363636  L 12.140625 8.10511363636364  C 12.3032852564103 7.56534090909091  12.3846153846154 7.01704545454545  12.3846153846154 6.46022727272727  C 12.3846153846154 5.61931818181818  12.1378205128205 4.82670454545454  11.6442307692308 4.08238636363636  C 11.150641025641 3.33806818181818  10.4873798076923 2.74431818181818  9.65444711538462 2.30113636363636  C 8.82151442307692 1.85795454545454  7.93669871794872 1.63636363636364  7 1.63636363636364  C 6.06330128205128 1.63636363636364  5.17848557692308 1.85795454545454  4.34555288461539 2.30113636363636  C 3.51262019230769 2.74431818181818  2.84935897435897 3.33806818181818  2.35576923076923 4.08238636363636  C 1.86217948717949 4.82670454545454  1.61538461538462 5.61931818181818  1.61538461538462 6.46022727272727  C 1.61538461538462 7.01704545454545  1.69671474358974 7.56534090909091  1.859375 8.10511363636364  L 2.43149038461538 8.20738636363636  C 2.62219551282051 7.86647727272727  2.88301282051282 7.59517045454545  3.21394230769231 7.39346590909091  C 3.5448717948718 7.19176136363636  3.90945512820513 7.09090909090909  4.30769230769231 7.09090909090909  L 4.30769230769231 6.81818181818182  C 4.30769230769231 6.73863636363636  4.33293269230769 6.67329545454546  4.38341346153846 6.62215909090909  C 4.43389423076923 6.57102272727273  4.49839743589744 6.54545454545454  4.57692307692308 6.54545454545454  L 5.11538461538461 6.54545454545454  C 5.19391025641026 6.54545454545454  5.25841346153846 6.57102272727273  5.30889423076923 6.62215909090909  C 5.359375 6.67329545454546  5.38461538461539 6.73863636363636  5.38461538461539 6.81818181818182  L 5.38461538461539 11.7272727272727  C 5.38461538461539 11.8068181818182  5.359375 11.8721590909091  5.30889423076923 11.9232954545455  C 5.25841346153846 11.9744318181818  5.19391025641026 12  5.11538461538461 12  L 4.57692307692308 12  C 4.49839743589744 12  4.43389423076923 11.9744318181818  4.38341346153846 11.9232954545455  C 4.33293269230769 11.8721590909091  4.30769230769231 11.8068181818182  4.30769230769231 11.7272727272727  L 4.30769230769231 11.4545454545455  C 3.81410256410256 11.4545454545455  3.37520032051282 11.3025568181818  2.99098557692308 10.9985795454545  C 2.60677083333333 10.6946022727273  2.35296474358974 10.3068181818182  2.22956730769231 9.83522727272727  L 0.673076923076923 9.55397727272727  L 0.504807692307692 9.13636363636364  C 0.168269230769231 8.29545454545454  0 7.40340909090909  0 6.46022727272727  C 0 5.60227272727273  0.187900641025641 4.77556818181818  0.563701923076923 3.98011363636364  C 0.939503205128205 3.18465909090909  1.44150641025641 2.49573863636364  2.06971153846154 1.91335227272727  C 2.69791666666667 1.33096590909091  3.44391025641026 0.866477272727272  4.30769230769231 0.519886363636364  C 5.17147435897436 0.173295454545454  6.06891025641026 0  7 0  C 7.93108974358974 0  8.82852564102564 0.173295454545454  9.69230769230769 0.519886363636364  C 10.5560897435897 0.866477272727272  11.3020833333333 1.33096590909091  11.9302884615385 1.91335227272727  C 12.5584935897436 2.49573863636364  13.0604967948718 3.18465909090909  13.4362980769231 3.98011363636364  Z " fill-rule="nonzero" fill="#000000" stroke="none" fill-opacity="0.647058823529412" transform="matrix(1 0 0 1 24 464 )" />
  </g>
</svg>