<?xml version="1.0" encoding="utf-8"?>
<svg version="1.1" xmlns:xlink="http://www.w3.org/1999/xlink" width="14px" height="11px" xmlns="http://www.w3.org/2000/svg">
  <g transform="matrix(1 0 0 1 -24 -519 )">
    <path d="M 2.625 5.5  L 4.375 5.5  L 4.375 9.16666666666667  L 2.625 9.16666666666667  L 2.625 5.5  Z M 5.25 1.83333333333333  L 7 1.83333333333333  L 7 9.16666666666667  L 5.25 9.16666666666667  L 5.25 1.83333333333333  Z M 1 10  L 14 10  L 14 11  L 0 11  L 0 0  L 1 0  L 1 10  Z M 7.875 3.66666666666667  L 9.625 3.66666666666667  L 9.625 9.16666666666667  L 7.875 9.16666666666667  L 7.875 3.66666666666667  Z M 10.5 0.916666666666667  L 12.25 0.916666666666667  L 12.25 9.16666666666667  L 10.5 9.16666666666667  L 10.5 0.916666666666667  Z " fill-rule="nonzero" fill="#000000" stroke="none" fill-opacity="0.647058823529412" transform="matrix(1 0 0 1 24 519 )" />
  </g>
</svg>