<?xml version="1.0" encoding="utf-8"?>
<svg version="1.1" xmlns:xlink="http://www.w3.org/1999/xlink" width="14px" height="14px" xmlns="http://www.w3.org/2000/svg">
  <g transform="matrix(1 0 0 1 -24 -571 )">
    <path d="M 13.7007510109763 11.3633737723859  C 13.9002503369921 11.5736568457539  14 11.8189870980166  14 12.0993645291739  C 14 12.3851338340073  13.9002503369921 12.6277681494319  13.7007510109763 12.8272674754477  L 12.8353552859619 13.7007510109763  C 12.6250722125939 13.9002503369921  12.3797419603312 14  12.0993645291739 14  C 11.8135952243405 14  11.5709609089158 13.9002503369921  11.3714615829001 13.7007510109763  L 8.43558636626227 10.7567879838244  C 8.23069516657038 10.5626805314847  8.12824956672444 10.3200462160601  8.12824956672444 10.0288850375505  C 8.12824956672444 9.74311573271712  8.24417485076064 9.4843057962642  8.47602541883304 9.2524552281918  L 6.40554592720971 7.18197573656846  L 5.38648180242634 8.20103986135182  C 5.31099557096091 8.27652609281725  5.21933371846717 8.31426920854997  5.11149624494512 8.31426920854997  C 5.00365877142307 8.31426920854997  4.91199691892933 8.27652609281725  4.83651068746389 8.20103986135182  C 4.8472944348161 8.21182360870402  4.88099364529174 8.24417485076064  4.93760831889082 8.29809358752166  C 4.99422299248989 8.35201232428269  5.02792220296553 8.38705950317735  5.03870595031774 8.40323512420566  C 5.04948969766994 8.41941074523397  5.07644906605045 8.45041401887156  5.11958405545927 8.49624494511843  C 5.16271904486809 8.5420758713653  5.1896784132486 8.57847101867899  5.20046216060081 8.6054303870595  C 5.21124590795301 8.63238975544001  5.22742152898132 8.66878490275371  5.24898902368573 8.71461582900058  C 5.27055651839014 8.76044675524745  5.28538417099942 8.80492971307529  5.29347198151358 8.84806470248411  C 5.30155979202773 8.89119969189293  5.30560369728481 8.93972655497785  5.30560369728481 8.99364529173888  C 5.30560369728481 9.19853649143077  5.23011746581937 9.38186019641826  5.0791450028885 9.54361640670133  C 5.0629693818602 9.55979202772964  5.01848642403235 9.60831889081456  4.94569612940497 9.6891969959561  C 4.87290583477759 9.77007510109763  4.82168303485461 9.82534180627768  4.79202772963605 9.85499711149624  C 4.76237242441749 9.88465241671481  4.71249759291354 9.92913537454265  4.64240323512421 9.98844598497978  C 4.57230887733487 10.0477565954169  4.51299826689775 10.0895436164067  4.46447140381282 10.1138070479492  C 4.4159445407279 10.1380704794916  4.35663393029078 10.1623339110341  4.28653957250144 10.1865973425765  C 4.21644521471211 10.210860774119  4.14635085692278 10.2229924898902  4.07625649913345 10.2229924898902  C 3.86058155208935 10.2229924898902  3.67725784710187 10.1475062584248  3.526285384171 9.99653379549393  L 0.226458694396303 6.69670710571924  C 0.0754862314654343 6.54573464278837  0 6.36241093780089  0 6.14673599075679  C 0 6.07664163296746  0.0121317157712305 6.00654727517812  0.0363951473136915 5.93645291738879  C 0.0606585788561525 5.86635855959946  0.0849220103986135 5.80704794916233  0.109185441941075 5.75852108607741  C 0.133448873483536 5.70999422299249  0.17523589447333 5.65068361255536  0.234546504910456 5.58058925476603  C 0.293857115347583 5.5104948969767  0.338340073175429 5.46062006547275  0.367995378393992 5.43096476025419  C 0.397650683612555 5.40130945503562  0.452917388792605 5.35008665511265  0.533795493934142 5.27729636048527  C 0.614673599075679 5.20450606585788  0.663200462160601 5.16002310803004  0.679376083188908 5.14384748700173  C 0.841132293471982 4.99287502407086  1.02445599845946 4.91738879260543  1.22934719815136 4.91738879260543  C 1.28326593491238 4.91738879260543  1.3317927979973 4.92143269786251  1.37492778740612 4.92952050837666  C 1.41806277681494 4.93760831889082  1.46254573464279 4.9524359715001  1.50837666088966 4.97400346620451  C 1.55420758713653 4.99557096090891  1.59060273445022 5.01174658193722  1.61756210283073 5.02253032928943  C 1.64452147121125 5.03331407664163  1.68091661852494 5.06027344502214  1.72674754477181 5.10340843443096  C 1.77257847101868 5.14654342383978  1.80358174465627 5.1735027922203  1.81975736568458 5.1842865395725  C 1.83593298671288 5.19507028692471  1.87098016560755 5.22876949740035  1.92489890236857 5.28538417099942  C 1.9788176391296 5.3419988445985  2.01116888118621 5.37569805507414  2.02195262853842 5.38648180242634  C 1.94646639707298 5.31099557096091  1.90872328134027 5.21933371846717  1.90872328134027 5.11149624494512  C 1.90872328134027 5.00365877142307  1.94646639707298 4.91199691892933  2.02195262853842 4.83651068746389  L 4.83651068746389 2.02195262853842  C 4.91199691892933 1.94646639707298  5.00365877142307 1.90872328134027  5.11149624494512 1.90872328134027  C 5.21933371846717 1.90872328134027  5.31099557096091 1.94646639707298  5.38648180242634 2.02195262853842  C 5.37569805507414 2.01116888118621  5.3419988445985 1.9788176391296  5.28538417099942 1.92489890236857  C 5.22876949740035 1.87098016560755  5.19507028692471 1.83593298671288  5.1842865395725 1.81975736568458  C 5.1735027922203 1.80358174465627  5.14654342383978 1.77257847101868  5.10340843443096 1.72674754477181  C 5.06027344502215 1.68091661852494  5.03331407664163 1.64452147121124  5.02253032928943 1.61756210283073  C 5.01174658193722 1.59060273445022  4.99557096090892 1.55420758713653  4.97400346620451 1.50837666088966  C 4.9524359715001 1.46254573464279  4.93760831889082 1.41806277681494  4.92952050837666 1.37492778740612  C 4.92143269786251 1.3317927979973  4.91738879260543 1.28326593491238  4.91738879260543 1.22934719815136  C 4.91738879260543 1.02445599845946  4.99287502407087 0.841132293471981  5.14384748700173 0.679376083188909  C 5.16002310803004 0.663200462160601  5.20450606585789 0.614673599075679  5.27729636048527 0.533795493934142  C 5.35008665511265 0.452917388792605  5.40130945503562 0.397650683612554  5.43096476025419 0.367995378393992  C 5.46062006547275 0.338340073175428  5.5104948969767 0.293857115347582  5.58058925476603 0.234546504910456  C 5.65068361255536 0.175235894473328  5.70999422299249 0.133448873483536  5.75852108607741 0.109185441941075  C 5.80704794916233 0.0849220103986128  5.86635855959946 0.060658578856152  5.93645291738879 0.0363951473136912  C 6.00654727517813 0.0121317157712304  6.07664163296746 0  6.14673599075679 0  C 6.36241093780089 0  6.54573464278837 0.0754862314654334  6.69670710571924 0.226458694396303  L 9.99653379549393 3.526285384171  C 10.1475062584248 3.67725784710187  10.2229924898902 3.86058155208935  10.2229924898902 4.07625649913345  C 10.2229924898902 4.14635085692278  10.210860774119 4.21644521471211  10.1865973425765 4.28653957250144  C 10.1623339110341 4.35663393029077  10.1380704794916 4.4159445407279  10.1138070479492 4.46447140381282  C 10.0895436164067 4.51299826689775  10.0477565954169 4.57230887733487  9.98844598497978 4.64240323512421  C 9.92913537454266 4.71249759291354  9.88465241671481 4.76237242441748  9.85499711149624 4.79202772963605  C 9.82534180627768 4.82168303485461  9.77007510109763 4.87290583477759  9.6891969959561 4.94569612940497  C 9.60831889081456 5.01848642403235  9.55979202772964 5.0629693818602  9.54361640670133 5.0791450028885  C 9.38186019641826 5.23011746581937  9.19853649143077 5.30560369728481  8.99364529173888 5.30560369728481  C 8.93972655497786 5.30560369728481  8.89119969189293 5.30155979202773  8.84806470248411 5.29347198151358  C 8.80492971307529 5.28538417099942  8.76044675524745 5.27055651839014  8.71461582900058 5.24898902368573  C 8.66878490275371 5.22742152898132  8.63238975544002 5.21124590795301  8.6054303870595 5.20046216060081  C 8.57847101867899 5.1896784132486  8.5420758713653 5.16271904486809  8.49624494511843 5.11958405545927  C 8.45041401887156 5.07644906605045  8.41941074523397 5.04948969766994  8.40323512420566 5.03870595031774  C 8.38705950317735 5.02792220296553  8.35201232428269 4.99422299248989  8.29809358752166 4.93760831889082  C 8.24417485076064 4.88099364529174  8.21182360870403 4.8472944348161  8.20103986135182 4.83651068746389  C 8.27652609281725 4.91199691892933  8.31426920854997 5.00365877142307  8.31426920854997 5.11149624494512  C 8.31426920854997 5.21933371846717  8.27652609281725 5.31099557096091  8.20103986135182 5.38648180242634  L 7.18197573656846 6.40554592720971  L 9.2524552281918 8.47602541883305  C 9.4843057962642 8.24417485076064  9.74311573271712 8.12824956672444  10.0288850375505 8.12824956672444  C 10.3092624687079 8.12824956672444  10.5545927209705 8.22799922973233  10.7648757943385 8.42749855574812  L 13.7007510109763 11.3633737723859  Z " fill-rule="nonzero" fill="#000000" stroke="none" fill-opacity="0.647058823529412" transform="matrix(1 0 0 1 24 571 )" />
  </g>
</svg>