<?xml version="1.0" encoding="utf-8"?>
<svg version="1.1" xmlns:xlink="http://www.w3.org/1999/xlink" width="14px" height="10px" xmlns="http://www.w3.org/2000/svg">
  <g transform="matrix(1 0 0 1 -24 -627 )">
    <path d="M 8.1 5.9375  C 8.14615384615385 5.89583333333333  8.16666666666667 5.84375  8.16153846153846 5.78125  L 8.16153846153846 5.75  L 7.97692307692308 3.25  C 7.97179487179487 3.18229166666667  7.94358974358974 3.12369791666667  7.89230769230769 3.07421875  C 7.84102564102564 3.02473958333333  7.78205128205128 3  7.71538461538462 3  L 6.28461538461538 3  C 6.21794871794872 3  6.15897435897436 3.02473958333333  6.10769230769231 3.07421875  C 6.05641025641026 3.12369791666667  6.02820512820513 3.18229166666667  6.02307692307692 3.25  L 5.83846153846154 5.75  L 5.83846153846154 5.78125  C 5.83333333333333 5.84375  5.85384615384615 5.89583333333333  5.9 5.9375  C 5.94615384615385 5.97916666666667  6 6  6.06153846153846 6  L 7.93846153846154 6  C 8 6  8.05384615384615 5.97916666666667  8.1 5.9375  Z M 13.8 8.5234375  C 13.9333333333333 8.84635416666667  14 9.1484375  14 9.4296875  C 14 9.80989583333333  13.8820512820513 10  13.6461538461538 10  L 8.23076923076923 10  C 8.2974358974359 10  8.35384615384615 9.97526041666667  8.4 9.92578125  C 8.44615384615385 9.87630208333333  8.46666666666667 9.81770833333333  8.46153846153846 9.75  L 8.30769230769231 7.75  C 8.30256410256411 7.68229166666667  8.27435897435898 7.62369791666667  8.22307692307692 7.57421875  C 8.17179487179487 7.52473958333333  8.11282051282051 7.5  8.04615384615385 7.5  L 5.95384615384615 7.5  C 5.88717948717949 7.5  5.82820512820513 7.52473958333333  5.77692307692308 7.57421875  C 5.72564102564103 7.62369791666667  5.6974358974359 7.68229166666667  5.69230769230769 7.75  L 5.53846153846154 9.75  C 5.53333333333333 9.81770833333333  5.55384615384615 9.87630208333333  5.6 9.92578125  C 5.64615384615385 9.97526041666667  5.7025641025641 10  5.76923076923077 10  L 0.353846153846154 10  C 0.117948717948718 10  0 9.80989583333333  0 9.4296875  C 0 9.1484375  0.0666666666666667 8.84635416666667  0.2 8.5234375  L 3.40769230769231 0.3671875  C 3.44871794871795 0.268229166666666  3.51538461538462 0.182291666666666  3.60769230769231 0.109375  C 3.7 0.0364583333333324  3.7974358974359 0  3.9 0  L 6.50769230769231 0  C 6.44102564102564 0  6.38205128205128 0.0247395833333319  6.33076923076923 0.0742187500000002  C 6.27948717948718 0.123697916666666  6.25128205128205 0.182291666666666  6.24615384615385 0.25  L 6.13076923076923 1.75  C 6.12564102564103 1.82291666666667  6.14615384615385 1.8828125  6.19230769230769 1.9296875  C 6.23846153846154 1.9765625  6.2948717948718 2  6.36153846153846 2  L 7.63846153846154 2  C 7.70512820512821 2  7.76153846153846 1.9765625  7.80769230769231 1.9296875  C 7.85384615384615 1.8828125  7.87435897435897 1.82291666666667  7.86923076923077 1.75  L 7.75384615384615 0.25  C 7.74871794871795 0.182291666666666  7.72051282051282 0.123697916666666  7.66923076923077 0.0742187500000002  C 7.61794871794872 0.0247395833333319  7.55897435897436 0  7.49230769230769 0  L 10.1 0  C 10.2025641025641 0  10.3 0.0364583333333324  10.3923076923077 0.109375  C 10.4846153846154 0.182291666666666  10.5512820512821 0.268229166666666  10.5923076923077 0.3671875  L 13.8 8.5234375  Z " fill-rule="nonzero" fill="#000000" stroke="none" fill-opacity="0.647058823529412" transform="matrix(1 0 0 1 24 627 )" />
  </g>
</svg>