<?xml version="1.0" encoding="utf-8"?>
<svg version="1.1" xmlns:xlink="http://www.w3.org/1999/xlink" width="14px" height="14px" xmlns="http://www.w3.org/2000/svg">
  <g transform="matrix(1 0 0 1 -24 -679 )">
    <path d="M 0.280936454849498 11  L 13.7190635451505 11  L 13.9921962095875 13.4453125  C 14.0078037904125 13.5911458333333  13.9661835748792 13.7213541666667  13.8673355629877 13.8359375  C 13.7684875510962 13.9453125  13.6436269044965 14  13.4927536231884 14  L 0.507246376811594 14  C 0.35637309550353 14  0.231512448903753 13.9453125  0.132664437012263 13.8359375  C 0.0338164251207729 13.7213541666667  -0.00780379041248606 13.5911458333333  0.00780379041248606 13.4453125  L 0.280936454849498 11  Z M 12.8294314381271 4.12890625  C 12.9230769230769 4.21484375  12.9777034559643 4.3203125  12.9933110367893 4.4453125  L 13.6644370122631 10.5  L 0.335562987736901 10.5  L 1.0066889632107 4.4453125  C 1.02229654403567 4.3203125  1.07692307692308 4.21484375  1.17056856187291 4.12890625  C 1.26421404682274 4.04296875  1.37606837606838 4  1.50613154960981 4  L 3.50390189520624 4  L 3.50390189520624 5  C 3.50390189520624 5.27604166666667  3.60144927536232 5.51171875  3.79654403567447 5.70703125  C 3.99163879598662 5.90234375  4.22705314009662 6  4.50278706800446 6  C 4.7785209959123 6  5.0139353400223 5.90234375  5.20903010033445 5.70703125  C 5.4041248606466 5.51171875  5.50167224080268 5.27604166666667  5.50167224080268 5  L 5.50167224080268 4  L 8.49832775919733 4  L 8.49832775919733 5  C 8.49832775919733 5.27604166666667  8.5958751393534 5.51171875  8.79096989966555 5.70703125  C 8.9860646599777 5.90234375  9.2214790040877 6  9.49721293199554 6  C 9.77294685990338 6  10.0083612040134 5.90234375  10.2034559643255 5.70703125  C 10.3985507246377 5.51171875  10.4960981047938 5.27604166666667  10.4960981047938 5  L 10.4960981047938 4  L 12.4938684503902 4  C 12.6239316239316 4  12.7357859531773 4.04296875  12.8294314381271 4.12890625  Z M 9.11872909698997 0.878906250000001  C 9.70401337792642 1.46484375  9.99665551839465 2.171875  9.99665551839465 3  L 9.99665551839465 5  C 9.99665551839465 5.13541666666667  9.9472315124489 5.25260416666667  9.84838350055741 5.3515625  C 9.74953548866593 5.45052083333333  9.63247863247863 5.5  9.49721293199554 5.5  C 9.36194723151245 5.5  9.24489037532516 5.45052083333333  9.14604236343367 5.3515625  C 9.04719435154218 5.25260416666667  8.99777034559643 5.13541666666667  8.99777034559643 5  L 8.99777034559643 3  C 8.99777034559643 2.44791666666667  8.80267558528428 1.9765625  8.41248606465998 1.5859375  C 8.02229654403567 1.1953125  7.55146785581568 1  7 1  C 6.44853214418432 1  5.97770345596432 1.1953125  5.58751393534002 1.5859375  C 5.19732441471572 1.9765625  5.00222965440357 2.44791666666667  5.00222965440357 3  L 5.00222965440357 5  C 5.00222965440357 5.13541666666667  4.95280564845782 5.25260416666667  4.85395763656633 5.3515625  C 4.75510962467484 5.45052083333333  4.63805276848755 5.5  4.50278706800446 5.5  C 4.36752136752137 5.5  4.25046451133408 5.45052083333333  4.15161649944259 5.3515625  C 4.0527684875511 5.25260416666667  4.00334448160535 5.13541666666667  4.00334448160535 5  L 4.00334448160535 3  C 4.00334448160535 2.171875  4.29598662207358 1.46484375  4.88127090301003 0.878906250000001  C 5.46655518394649 0.29296875  6.17279821627648 0  7 0  C 7.82720178372352 0  8.53344481605351 0.29296875  9.11872909698997 0.878906250000001  Z " fill-rule="nonzero" fill="#000000" stroke="none" fill-opacity="0.647058823529412" transform="matrix(1 0 0 1 24 679 )" />
  </g>
</svg>