<?xml version="1.0" encoding="utf-8"?>
<svg version="1.1" xmlns:xlink="http://www.w3.org/1999/xlink" width="14px" height="11px" xmlns="http://www.w3.org/2000/svg">
  <g transform="matrix(1 0 0 1 -24 -735 )">
    <path d="M 8 9  L 8 10  L 13 10  L 13 9  L 8 9  Z M 5 5  L 5 6  L 13 6  L 13 5  L 5 5  Z M 10 1  L 10 2  L 13 2  L 13 1  L 10 1  Z M 13.8515625 8.1484375  C 13.9505208333333 8.24739583333333  14 8.36458333333333  14 8.5  L 14 10.5  C 14 10.6354166666667  13.9505208333333 10.7526041666667  13.8515625 10.8515625  C 13.7526041666667 10.9505208333333  13.6354166666667 11  13.5 11  L 0.5 11  C 0.364583333333333 11  0.247395833333333 10.9505208333333  0.1484375 10.8515625  C 0.0494791666666667 10.7526041666667  0 10.6354166666667  0 10.5  L 0 8.5  C 0 8.36458333333333  0.0494791666666667 8.24739583333333  0.1484375 8.1484375  C 0.247395833333333 8.04947916666667  0.364583333333333 8  0.5 8  L 13.5 8  C 13.6354166666667 8  13.7526041666667 8.04947916666667  13.8515625 8.1484375  Z M 13.8515625 4.1484375  C 13.9505208333333 4.24739583333333  14 4.36458333333333  14 4.5  L 14 6.5  C 14 6.63541666666667  13.9505208333333 6.75260416666667  13.8515625 6.8515625  C 13.7526041666667 6.95052083333333  13.6354166666667 7  13.5 7  L 0.5 7  C 0.364583333333333 7  0.247395833333333 6.95052083333333  0.1484375 6.8515625  C 0.0494791666666667 6.75260416666667  0 6.63541666666667  0 6.5  L 0 4.5  C 0 4.36458333333333  0.0494791666666667 4.24739583333333  0.1484375 4.1484375  C 0.247395833333333 4.04947916666667  0.364583333333333 4  0.5 4  L 13.5 4  C 13.6354166666667 4  13.7526041666667 4.04947916666667  13.8515625 4.1484375  Z M 13.8515625 0.148437500000001  C 13.9505208333333 0.247395833333332  14 0.364583333333333  14 0.5  L 14 2.5  C 14 2.63541666666667  13.9505208333333 2.75260416666667  13.8515625 2.8515625  C 13.7526041666667 2.95052083333333  13.6354166666667 3  13.5 3  L 0.5 3  C 0.364583333333333 3  0.247395833333333 2.95052083333333  0.1484375 2.8515625  C 0.0494791666666667 2.75260416666667  0 2.63541666666667  0 2.5  L 0 0.5  C 0 0.364583333333333  0.0494791666666667 0.247395833333332  0.1484375 0.148437500000001  C 0.247395833333333 0.0494791666666656  0.364583333333333 0  0.5 0  L 13.5 0  C 13.6354166666667 0  13.7526041666667 0.0494791666666656  13.8515625 0.148437500000001  Z " fill-rule="nonzero" fill="#000000" stroke="none" fill-opacity="0.647058823529412" transform="matrix(1 0 0 1 24 735 )" />
  </g>
</svg>