<?xml version="1.0" encoding="utf-8"?>
<svg version="1.1" xmlns:xlink="http://www.w3.org/1999/xlink" width="14px" height="14px" xmlns="http://www.w3.org/2000/svg">
  <g transform="matrix(1 0 0 1 -24 -787 )">
    <path d="M 13.83375 7.59821428571429  C 13.9445833333333 7.71130952380952  14 7.8452380952381  14 8  C 14 8.1547619047619  13.9445833333333 8.28869047619047  13.83375 8.40178571428571  C 13.7229166666667 8.51488095238095  13.5916666666667 8.57142857142857  13.44 8.57142857142857  L 11.48 8.57142857142857  C 11.48 9.58928571428572  11.2845833333333 10.452380952381  10.89375 11.1607142857143  L 12.71375 13.0267857142857  C 12.8245833333333 13.139880952381  12.88 13.2738095238095  12.88 13.4285714285714  C 12.88 13.5833333333333  12.8245833333333 13.7172619047619  12.71375 13.8303571428571  C 12.60875 13.9434523809524  12.4775 14  12.32 14  C 12.1625 14  12.03125 13.9434523809524  11.92625 13.8303571428571  L 10.19375 12.0714285714286  C 10.1645833333333 12.1011904761905  10.1208333333333 12.139880952381  10.0625 12.1875  C 10.0041666666667 12.235119047619  9.88166666666667 12.3199404761905  9.695 12.4419642857143  C 9.50833333333333 12.5639880952381  9.31875 12.672619047619  9.12625 12.7678571428571  C 8.93375 12.8630952380952  8.69458333333333 12.9494047619048  8.40875 13.0267857142857  C 8.12291666666667 13.1041666666667  7.84 13.1428571428571  7.56 13.1428571428571  L 7.56 5.14285714285714  L 6.44 5.14285714285714  L 6.44 13.1428571428571  C 6.1425 13.1428571428571  5.84645833333333 13.1026785714286  5.551875 13.0223214285714  C 5.25729166666667 12.9419642857143  5.00354166666667 12.84375  4.790625 12.7276785714286  C 4.57770833333333 12.6116071428571  4.38520833333333 12.4955357142857  4.213125 12.3794642857143  C 4.04104166666667 12.2633928571429  3.91416666666667 12.1666666666667  3.8325 12.0892857142857  L 3.70125 11.9642857142857  L 2.1 13.8125  C 1.98333333333333 13.9375  1.84333333333333 14  1.68 14  C 1.54 14  1.41458333333333 13.952380952381  1.30375 13.8571428571429  C 1.19291666666667 13.75  1.133125 13.6175595238095  1.124375 13.4598214285714  C 1.115625 13.3020833333333  1.16083333333333 13.1636904761905  1.26 13.0446428571429  L 3.0275 11.0178571428571  C 2.68916666666667 10.3392857142857  2.52 9.52380952380952  2.52 8.57142857142857  L 0.56 8.57142857142857  C 0.408333333333333 8.57142857142857  0.277083333333333 8.51488095238095  0.16625 8.40178571428571  C 0.0554166666666667 8.28869047619047  0 8.1547619047619  0 8  C 0 7.8452380952381  0.0554166666666667 7.71130952380952  0.16625 7.59821428571429  C 0.277083333333333 7.48511904761905  0.408333333333333 7.42857142857143  0.56 7.42857142857143  L 2.52 7.42857142857143  L 2.52 4.80357142857143  L 1.00625 3.25892857142857  C 0.895416666666667 3.14583333333333  0.84 3.01190476190476  0.84 2.85714285714286  C 0.84 2.70238095238095  0.895416666666667 2.56845238095238  1.00625 2.45535714285714  C 1.11708333333333 2.3422619047619  1.24833333333333 2.28571428571429  1.4 2.28571428571429  C 1.55166666666667 2.28571428571429  1.68291666666667 2.3422619047619  1.79375 2.45535714285714  L 3.3075 4  L 10.6925 4  L 12.20625 2.45535714285714  C 12.3170833333333 2.3422619047619  12.4483333333333 2.28571428571429  12.6 2.28571428571429  C 12.7516666666667 2.28571428571429  12.8829166666667 2.3422619047619  12.99375 2.45535714285714  C 13.1045833333333 2.56845238095238  13.16 2.70238095238095  13.16 2.85714285714286  C 13.16 3.01190476190476  13.1045833333333 3.14583333333333  12.99375 3.25892857142857  L 11.48 4.80357142857143  L 11.48 7.42857142857143  L 13.44 7.42857142857143  C 13.5916666666667 7.42857142857143  13.7229166666667 7.48511904761905  13.83375 7.59821428571429  Z M 8.981875 0.834821428571428  C 9.52729166666667 1.39136904761905  9.8 2.06547619047619  9.8 2.85714285714286  L 4.2 2.85714285714286  C 4.2 2.06547619047619  4.47270833333333 1.39136904761905  5.018125 0.834821428571428  C 5.56354166666667 0.278273809523808  6.22416666666667 0  7 0  C 7.77583333333333 0  8.43645833333333 0.278273809523808  8.981875 0.834821428571428  Z " fill-rule="nonzero" fill="#000000" stroke="none" fill-opacity="0.647058823529412" transform="matrix(1 0 0 1 24 787 )" />
  </g>
</svg>