<?xml version="1.0" encoding="utf-8"?>
<svg version="1.1" xmlns:xlink="http://www.w3.org/1999/xlink" width="69px" height="10px" preserveAspectRatio="xMinYMid meet" viewBox="1501 669  69 8" xmlns="http://www.w3.org/2000/svg">
  <path d="M 257 578.5  L 1501 578.5  A 5 5 0 0 1 1506.5 583.5 L 1506.5 668  A 5 5 0 0 0 1511.5 673.5 L 1560 673.5  A 5 5 0 0 1 1565.5 678.5 L 1565.5 683  " stroke-width="1" stroke="#ff3399" fill="none" />
  <path d="M 259 575.5  A 3 3 0 0 0 256 578.5 A 3 3 0 0 0 259 581.5 A 3 3 0 0 0 262 578.5 A 3 3 0 0 0 259 575.5 Z " fill-rule="nonzero" fill="#ff3399" stroke="none" />
</svg>