<?xml version="1.0" encoding="utf-8"?>
<svg version="1.1" xmlns:xlink="http://www.w3.org/1999/xlink" width="65px" height="10px" preserveAspectRatio="xMinYMid meet" viewBox="1465 446  65 8" xmlns="http://www.w3.org/2000/svg">
  <path d="M 1381 469.5  L 1465 469.5  A 5 5 0 0 0 1470.5 464.5 L 1470.5 455  A 5 5 0 0 1 1475.5 450.5 L 1520 450.5  A 5 5 0 0 1 1525.5 455.5 L 1525.5 468  " stroke-width="1" stroke="#ff3399" fill="none" />
  <path d="M 1383 466.5  A 3 3 0 0 0 1380 469.5 A 3 3 0 0 0 1383 472.5 A 3 3 0 0 0 1386 469.5 A 3 3 0 0 0 1383 466.5 Z " fill-rule="nonzero" fill="#ff3399" stroke="none" />
</svg>