<?xml version="1.0" encoding="utf-8"?>
<svg version="1.1" xmlns:xlink="http://www.w3.org/1999/xlink" width="200px" height="100px" xmlns="http://www.w3.org/2000/svg">
  <g transform="matrix(1 0 0 1 -1486 -65 )">
    <path d="M 1487 69  A 3 3 0 0 1 1490 66 L 1682 66  A 3 3 0 0 1 1685 69 L 1685 161  A 3 3 0 0 1 1682 164 L 1490 164  A 3 3 0 0 1 1487 161 L 1487 69  Z " fill-rule="nonzero" fill="#ff3399" stroke="none" fill-opacity="0.0980392156862745" />
    <path d="M 1486.5 69  A 3.5 3.5 0 0 1 1490 65.5 L 1682 65.5  A 3.5 3.5 0 0 1 1685.5 69 L 1685.5 161  A 3.5 3.5 0 0 1 1682 164.5 L 1490 164.5  A 3.5 3.5 0 0 1 1486.5 161 L 1486.5 69  Z " stroke-width="1" stroke-dasharray="9,4" stroke="#ff3399" fill="none" stroke-dashoffset="0.5" />
  </g>
</svg>