<?xml version="1.0" encoding="utf-8"?>
<svg version="1.1" xmlns:xlink="http://www.w3.org/1999/xlink" width="32px" height="32px" xmlns="http://www.w3.org/2000/svg">
  <g transform="matrix(1 0 0 1 -387 -261 )">
    <path d="M 403 261.5  C 411.68 261.5  418.5 268.32  418.5 277  C 418.5 285.68  411.68 292.5  403 292.5  C 394.32 292.5  387.5 285.68  387.5 277  C 387.5 268.32  394.32 261.5  403 261.5  Z " fill-rule="nonzero" fill="#ffffff" stroke="none" fill-opacity="0" />
    <path d="M 403 261.5  C 411.68 261.5  418.5 268.32  418.5 277  C 418.5 285.68  411.68 292.5  403 292.5  C 394.32 292.5  387.5 285.68  387.5 277  C 387.5 268.32  394.32 261.5  403 261.5  Z " stroke-width="1" stroke="#000000" fill="none" stroke-opacity="0.149019607843137" />
  </g>
</svg>