<?xml version="1.0" encoding="utf-8"?>
<svg version="1.1" xmlns:xlink="http://www.w3.org/1999/xlink" width="175px" height="32px" xmlns="http://www.w3.org/2000/svg">
  <defs>
    <mask fill="white" id="clip44">
      <path d="M 0 28  L 0 4  C 0 1.76000000000022  1.76000000000022 0  4 0  L 79.1538461538462 0  L 171 0  C 173.24 0  175 1.76000000000022  175 4  L 175 28  C 175 30.2399999999998  173.24 32  171 32  L 4 32  C 1.76000000000022 32  0 30.2399999999998  0 28  Z " fill-rule="evenodd" />
    </mask>
  </defs>
  <g transform="matrix(1 0 0 1 -79 -68 )">
    <path d="M 0 28  L 0 4  C 0 1.76000000000022  1.76000000000022 0  4 0  L 79.1538461538462 0  L 171 0  C 173.24 0  175 1.76000000000022  175 4  L 175 28  C 175 30.2399999999998  173.24 32  171 32  L 4 32  C 1.76000000000022 32  0 30.2399999999998  0 28  Z " fill-rule="nonzero" fill="#ffffff" stroke="none" transform="matrix(1 0 0 1 79 68 )" />
    <path d="M 0 28  L 0 4  C 0 1.76000000000022  1.76000000000022 0  4 0  L 79.1538461538462 0  L 171 0  C 173.24 0  175 1.76000000000022  175 4  L 175 28  C 175 30.2399999999998  173.24 32  171 32  L 4 32  C 1.76000000000022 32  0 30.2399999999998  0 28  Z " stroke-width="2" stroke="#d9d9d9" fill="none" transform="matrix(1 0 0 1 79 68 )" mask="url(#clip44)" />
  </g>
</svg>