<?xml version="1.0" encoding="utf-8"?>
<svg version="1.1" xmlns:xlink="http://www.w3.org/1999/xlink" width="206px" height="156px" xmlns="http://www.w3.org/2000/svg">
  <g transform="matrix(1 0 0 1 -1507 -68 )">
    <path d="M 1508 72  A 3 3 0 0 1 1511 69 L 1709 69  A 3 3 0 0 1 1712 72 L 1712 220  A 3 3 0 0 1 1709 223 L 1511 223  A 3 3 0 0 1 1508 220 L 1508 72  Z " fill-rule="nonzero" fill="#ff3399" stroke="none" fill-opacity="0.0980392156862745" />
    <path d="M 1507.5 72  A 3.5 3.5 0 0 1 1511 68.5 L 1709 68.5  A 3.5 3.5 0 0 1 1712.5 72 L 1712.5 220  A 3.5 3.5 0 0 1 1709 223.5 L 1511 223.5  A 3.5 3.5 0 0 1 1507.5 220 L 1507.5 72  Z " stroke-width="1" stroke-dasharray="9,4" stroke="#ff3399" fill="none" stroke-dashoffset="0.5" />
  </g>
</svg>